<?xml version="1.0" encoding="UTF-8"?>
<svg version="1.1" xmlns="http://www.w3.org/2000/svg" width="800" height="800">
<path d="M0 0 C330 0 660 0 1000 0 C1000 330 1000 660 1000 1000 C670 1000 340 1000 0 1000 C0 670 0 340 0 0 Z " fill="#eaeaea" transform="translate(0,0)"/>
<path d="M0 0 C0.75539063 0.66644531 1.51078125 1.33289063 2.2890625 2.01953125 C3.10632813 2.71691406 3.92359375 3.41429687 4.765625 4.1328125 C21.57997614 18.78680583 35.20041825 37.46556285 41.41772461 59.09619141 C43.80535313 67.33909317 46.04007553 71.83274037 53.3046875 76.91796875 C70.32066986 88.90042753 82.10223458 108.31493125 92.2890625 126.01953125 C92.65338379 126.63973145 93.01770508 127.25993164 93.39306641 127.89892578 C107.9358411 152.78747543 115.16391168 180.90718105 120.2890625 209.01953125 C120.49015625 210.07785156 120.69125 211.13617188 120.8984375 212.2265625 C121.31349549 215.1942271 121.49735396 218.14302308 121.62817383 221.13574219 C121.76133715 224.10829122 121.96123808 227.07502247 122.16503906 230.04345703 C122.26764546 231.67829207 122.32703504 233.3157756 122.375 234.953125 C122.62003164 237.4583623 122.89391469 238.91966714 124.2890625 241.01953125 C145.0387833 254.96131573 179.93165016 253.57649321 203.2890625 249.01953125 C214.78223707 246.32963933 225.56787285 241.55333744 236.35302734 236.85400391 C238.64795379 235.86484141 240.96150921 234.92909616 243.2890625 234.01953125 C243.9078125 235.68628906 243.9078125 235.68628906 244.5390625 237.38671875 C247.7141469 245.65346366 250.74257746 252.56116854 256.8828125 259.13671875 C257.346875 259.75804687 257.8109375 260.379375 258.2890625 261.01953125 C257.2890625 264.01953125 257.2890625 264.01953125 254.74243164 265.57836914 C253.05041626 266.40195923 253.05041626 266.40195923 251.32421875 267.2421875 C250.70841949 267.54385834 250.09262024 267.84552917 249.4581604 268.15634155 C247.42849569 269.1442925 245.39105539 270.11454646 243.3515625 271.08203125 C242.65334381 271.41623077 241.95512512 271.7504303 241.23574829 272.09475708 C212.3947536 285.87126341 182.61867665 296.10668577 151.0859375 301.51855469 C148.47171972 301.98681367 145.88463297 302.52877896 143.2890625 303.08984375 C131.2628631 305.477372 118.98471533 305.23620262 106.77416992 305.25976562 C103.757365 305.26943255 100.74125423 305.30052325 97.72460938 305.33203125 C81.61774092 305.42079751 66.08470168 303.91719187 50.6015625 299.26953125 C49.29723267 298.88547119 49.29723267 298.88547119 47.96655273 298.49365234 C31.01600244 293.33526237 15.45047493 285.29754081 1.3984375 274.48828125 C-0.55609859 272.8290577 -0.55609859 272.8290577 -2.7109375 273.01953125 C-3.23042969 274.05851562 -3.74992187 275.0975 -4.28515625 276.16796875 C-4.62071533 276.83812012 -4.95627441 277.50827148 -5.30200195 278.19873047 C-6.03933486 279.67536644 -6.77349677 281.15358962 -7.50463867 282.63330078 C-9.02122444 285.69462551 -10.536688 288.71879607 -12.25 291.67578125 C-16.4199504 298.9412163 -17.28878752 306.70215486 -18.41552734 314.88183594 C-18.81132862 317.74599792 -19.26168702 320.60082088 -19.7109375 323.45703125 C-19.86433594 324.46507812 -20.01773437 325.473125 -20.17578125 326.51171875 C-20.86609775 331.03656708 -21.56686257 335.5596957 -22.2734375 340.08203125 C-22.40041016 340.90437256 -22.52738281 341.72671387 -22.65820312 342.57397461 C-22.84092773 343.74005249 -22.84092773 343.74005249 -23.02734375 344.9296875 C-23.13506104 345.62199463 -23.24277832 346.31430176 -23.35375977 347.02758789 C-23.7109375 349.01953125 -23.7109375 349.01953125 -24.2052002 350.80647278 C-24.78866888 353.35967638 -24.98699937 355.80654844 -25.15991211 358.42041016 C-25.2334642 359.50319244 -25.3070163 360.58597473 -25.38279724 361.7015686 C-25.45885696 362.8712619 -25.53491669 364.0409552 -25.61328125 365.24609375 C-25.69590714 366.4629184 -25.77853302 367.67974304 -25.86366272 368.93344116 C-26.21656775 374.13137367 -26.56124884 379.32984192 -26.90600586 384.52832031 C-27.15939074 388.33030119 -27.41749235 392.13194333 -27.67578125 395.93359375 C-27.74981674 397.07494781 -27.82385223 398.21630188 -27.90013123 399.39224243 C-28.55365277 408.99355633 -29.64485982 418.42483214 -30.7109375 428.01953125 C-55.1309375 428.01953125 -79.5509375 428.01953125 -104.7109375 428.01953125 C-105.2059375 417.78953125 -105.7009375 407.55953125 -106.2109375 397.01953125 C-106.44586914 392.19521484 -106.44586914 392.19521484 -106.68554688 387.2734375 C-106.80874549 384.7096427 -106.93180191 382.14584107 -107.0546875 379.58203125 C-107.10308777 378.59698608 -107.10308777 378.59698608 -107.15246582 377.59204102 C-107.48916615 370.7286948 -107.80216212 363.89178569 -107.7109375 357.01953125 C-108.40952881 357.18557861 -109.10812012 357.35162598 -109.82788086 357.52270508 C-134.72827211 363.41806748 -158.03683406 367.26941496 -183.6484375 367.33203125 C-184.67028137 367.33464966 -185.69212524 367.33726807 -186.74493408 367.33996582 C-208.97287165 367.3460596 -230.28219317 365.24668772 -251.7109375 359.01953125 C-253.01677966 358.64661879 -254.32276831 358.2742189 -255.62890625 357.90234375 C-257.15451172 357.46535156 -257.15451172 357.46535156 -258.7109375 357.01953125 C-259.78488341 380.67742003 -260.21472393 404.34305502 -260.7109375 428.01953125 C-287.4409375 428.01953125 -314.1709375 428.01953125 -341.7109375 428.01953125 C-343.06246329 423.28919098 -344.19198967 418.88055016 -345.078125 414.08203125 C-345.32669849 412.76039326 -345.57540075 411.43877948 -345.82421875 410.1171875 C-346.20343326 408.08224765 -346.58088019 406.04700907 -346.95556641 404.01123047 C-348.53658643 395.45278167 -350.35998218 387.04495274 -352.69921875 378.65283203 C-353.34826003 376.32198448 -353.96579597 373.98200004 -354.54296875 371.63232422 C-356.99538726 362.05707252 -360.99466599 353.52798498 -365.33303833 344.69781494 C-367.49242728 340.29719538 -369.61004049 335.87652191 -371.73046875 331.45703125 C-372.15639816 330.57089142 -372.58232758 329.68475159 -373.02116394 328.77175903 C-388.19512393 297.11008576 -403.7807824 263.82017829 -409.7109375 229.01953125 C-410.38979737 231.51676577 -411.05411177 234.01649266 -411.7109375 236.51953125 C-411.99710938 237.56367187 -411.99710938 237.56367187 -412.2890625 238.62890625 C-413.56849043 243.56384255 -414.05546454 247.91724978 -413.7109375 253.01953125 C-411.8796564 255.83052539 -411.8796564 255.83052539 -409.7109375 258.01953125 C-407.23172997 265.45715384 -408.51656302 273.01691673 -411.7109375 280.01953125 C-416.05241883 288.5848386 -421.437399 295.79287012 -427.7109375 303.01953125 C-432.09238878 300.82880561 -433.19191285 293.41897056 -434.7109375 289.01953125 C-437.71947775 279.91099798 -440.01973136 268.97986568 -436.9140625 259.6171875 C-435.62846874 257.27839577 -434.17597026 255.40298431 -432.11328125 253.70214844 C-430.11361735 251.30283026 -430.23451977 249.44149094 -430.0859375 246.34765625 C-430.02132324 245.21610107 -429.95670898 244.0845459 -429.89013672 242.91870117 C-429.80143311 241.11236206 -429.80143311 241.11236206 -429.7109375 239.26953125 C-426.56096623 189.81756958 -398.95738534 139.39593987 -368.7109375 101.01953125 C-368.24800293 100.42817383 -367.78506836 99.83681641 -367.30810547 99.22753906 C-355.43255115 84.21065239 -341.75256337 70.52328628 -325.7109375 60.01953125 C-325.13762695 59.63925781 -324.56431641 59.25898438 -323.97363281 58.8671875 C-307.65094664 48.17652165 -289.38599218 39.65037621 -270.7109375 34.01953125 C-269.99083496 33.80103516 -269.27073242 33.58253906 -268.52880859 33.35742188 C-262.96698585 31.70642596 -257.36361796 30.32106365 -251.7109375 29.01953125 C-250.8952832 28.82053223 -250.07962891 28.6215332 -249.23925781 28.41650391 C-227.77802606 23.34014514 -205.603003 24.63966359 -183.7109375 25.01953125 C-185.21642391 28.21056367 -187.03807032 30.75850536 -189.28979492 33.48266602 C-198.66809466 44.86197044 -205.82095823 56.9478035 -211.1484375 70.70703125 C-211.62543091 71.93401733 -211.62543091 71.93401733 -212.11206055 73.18579102 C-216.58680318 85.36763678 -218.21184211 97.21468345 -218.10205078 110.09545898 C-218.08602325 112.3201293 -218.10196888 114.54296364 -218.12109375 116.76757812 C-218.14430614 130.87012351 -216.34978355 144.5506139 -211.0234375 157.70703125 C-210.50015869 159.03154297 -210.50015869 159.03154297 -209.96630859 160.3828125 C-204.733782 173.27733696 -197.52766286 184.3065871 -188.7109375 195.01953125 C-187.64939453 196.33050781 -187.64939453 196.33050781 -186.56640625 197.66796875 C-168.79589932 218.57056874 -140.75948538 233.24712709 -113.7109375 237.01953125 C-109.09936742 237.21070273 -104.48824758 237.20534274 -99.87329102 237.20483398 C-97.67899598 237.20700107 -95.48522067 237.22513356 -93.29101562 237.24414062 C-63.40642968 237.36344838 -33.03229031 227.00833066 -11.44140625 205.7890625 C-10.87035156 205.20511719 -10.29929687 204.62117187 -9.7109375 204.01953125 C-10.72929688 204.59960938 -11.74765625 205.1796875 -12.796875 205.77734375 C-20.31771212 209.96536844 -27.77217677 213.69335904 -35.9609375 216.39453125 C-36.64333496 216.62027832 -37.32573242 216.84602539 -38.02880859 217.07861328 C-40.24445852 217.77540778 -42.47172155 218.40270177 -44.7109375 219.01953125 C-45.608125 219.28660889 -46.5053125 219.55368652 -47.4296875 219.82885742 C-57.62869994 222.5722937 -67.72406087 222.61636594 -78.2109375 222.58203125 C-79.14535675 222.58121552 -80.079776 222.58039978 -81.04251099 222.57955933 C-95.07739356 222.52313149 -107.701418 221.70405108 -120.7109375 216.01953125 C-121.51917969 215.68743652 -122.32742188 215.3553418 -123.16015625 215.01318359 C-138.71062177 208.56697318 -151.56195017 199.66566314 -163.7109375 188.01953125 C-164.53078125 187.26285156 -165.350625 186.50617188 -166.1953125 185.7265625 C-188.12674065 164.85083974 -200.89721115 134.85238503 -201.98828125 104.74609375 C-202.75906576 69.04701339 -191.91116654 37.53966967 -167.06469727 11.40307617 C-123.92731004 -32.8966096 -48.53011139 -41.14509444 0 0 Z " fill="#464646" transform="translate(589.7109375,298.98046875)"/>
<path d="M0 0 C4.70588235 0.70588235 4.70588235 0.70588235 6 2 C6.04080783 3.99958364 6.04254356 6.00045254 6 8 C5.01 8.495 5.01 8.495 4 9 C4.66 9.33 5.32 9.66 6 10 C6.40729228 12.32156597 6.74438677 14.6568787 7 17 C7.33 17 7.66 17 8 17 C8.027193 18.58323688 8.04648306 20.16661062 8.0625 21.75 C8.07410156 22.63171875 8.08570312 23.5134375 8.09765625 24.421875 C8 27 8 27 7.46875 29.0625 C6.92464889 31.31145124 7.0955971 32.97064734 7.4375 35.25 C7.623125 36.4875 7.80875 37.725 8 39 C7.34 39 6.68 39 6 39 C6.48895752 39.40774658 6.97791504 39.81549316 7.48168945 40.2355957 C9.35987877 42.41820934 9.35334764 43.39266086 9.29296875 46.23046875 C9.28330078 47.03291016 9.27363281 47.83535156 9.26367188 48.66210938 C9.23853516 49.49548828 9.21339844 50.32886719 9.1875 51.1875 C9.16719727 52.4549707 9.16719727 52.4549707 9.14648438 53.74804688 C9.11115799 55.83230384 9.05735139 57.91623277 9 60 C8.34 60 7.68 60 7 60 C7.33 60.99 7.66 61.98 8 63 C8.33345726 65.71139016 8.43357964 68.29716588 8 71 C6 73 6 73 4 74 C4.66 74.33 5.32 74.66 6 75 C6 75.66 6 76.32 6 77 C2.7 77 -0.6 77 -4 77 C-4 77.99 -4 78.98 -4 80 C-4.66 80 -5.32 80 -6 80 C-6.33 77.69 -6.66 75.38 -7 73 C-6.34 73 -5.68 73 -5 73 C-5 72.34 -5 71.68 -5 71 C-5.99 70.67 -6.98 70.34 -8 70 C-8.1953125 63.9453125 -8.1953125 63.9453125 -8 62 C-7.34 61.34 -6.68 60.68 -6 60 C-6.24165005 57.29351942 -6.58725359 54.68063259 -7 52 C-7.22245831 50.25173941 -7.4306646 48.5016097 -7.625 46.75 C-7.72039063 45.94046875 -7.81578125 45.1309375 -7.9140625 44.296875 C-8.00083895 41.97757705 -7.58140232 40.22706653 -7 38 C-7.33 37.67 -7.66 37.34 -8 37 C-8.29386153 33.27775401 -8.14809171 32.22213757 -6 29 C-5.34 29 -4.68 29 -4 29 C-4.48855469 28.29875 -4.97710938 27.5975 -5.48046875 26.875 C-7.204301 23.6134562 -7.37317555 21.65920267 -7.3125 18 C-7.30863281 16.989375 -7.30476562 15.97875 -7.30078125 14.9375 C-6.99464942 11.94774501 -6.2533749 9.71647787 -5 7 C-5.66 7 -6.32 7 -7 7 C-7 5.02 -7 3.04 -7 1 C-6.34 1 -5.68 1 -5 1 C-5 2.32 -5 3.64 -5 5 C-4.01 5 -3.02 5 -2 5 C-1.855625 4.360625 -1.71125 3.72125 -1.5625 3.0625 C-1 1 -1 1 0 0 Z " fill="#E4E4E4" transform="translate(23,764)"/>
<path d="M0 0 C-0.89456869 6.64536741 -0.89456869 6.64536741 -1.6875 9.3125 C-1.790625 9.869375 -1.89375 10.42625 -2 11 C-1.34 11.66 -0.68 12.32 0 13 C0.2117572 15.47388875 0.30399471 17.83311124 0.30078125 20.30859375 C0.30506638 21.03111832 0.3093515 21.75364288 0.31376648 22.49806213 C0.31951237 24.02709912 0.32000812 25.55616344 0.31567383 27.08520508 C0.31251671 29.42511674 0.33595758 31.76376067 0.36132812 34.10351562 C0.36360139 35.58854007 0.36430449 37.07356792 0.36328125 38.55859375 C0.372491 39.2586705 0.38170074 39.95874725 0.39118958 40.68003845 C0.34475918 45.55507991 0.34475918 45.55507991 -1.52270508 47.96508789 C-2.25396606 48.47736938 -2.25396606 48.47736938 -3 49 C-2.34 49.33 -1.68 49.66 -1 50 C-1 51.65 -1 53.3 -1 55 C-6.65020618 54.39891424 -11.66164461 52.92471317 -17 51 C-17.25 48.6875 -17.25 48.6875 -17 46 C-16.34 45.54625 -15.68 45.0925 -15 44.625 C-14.34 44.08875 -13.68 43.5525 -13 43 C-12.66619186 39.37436186 -12.66619186 39.37436186 -13 36 C-14.65 36 -16.3 36 -18 36 C-17.67 34.68 -17.34 33.36 -17 32 C-14.525 31.505 -14.525 31.505 -12 31 C-12 30.34 -12 29.68 -12 29 C-12.66 29 -13.32 29 -14 29 C-13.8453125 27.3603125 -13.8453125 27.3603125 -13.6875 25.6875 C-13.790625 24.470625 -13.89375 23.25375 -14 22 C-16.3726974 19.99135641 -16.3726974 19.99135641 -19 19 C-18.67 17.68 -18.34 16.36 -18 15 C-16.68 14.67 -15.36 14.34 -14 14 C-13.23681405 9.17867673 -13.23681405 9.17867673 -13.0625 4.3125 C-12.98971276 1.61937205 -12.56571188 0.19199663 -11 -2 C-7.07040122 -4.18311043 -3.6835409 -1.77093312 0 0 Z " fill="#EAEAEA" transform="translate(32,930)"/>
<path d="M0 0 C3.70390021 2.02666238 5.65363011 3.48044516 8 7 C8.42740092 12.29977145 8.52351458 15.74748241 5 20 C1.06538376 23.16955197 -2.02077887 23.53348798 -7 23 C-10.49663903 21.56955676 -11.75953283 20.37313872 -13.8125 17.1875 C-15.13583162 13.63539934 -15.68672439 11.7388328 -15 8 C-10.80278061 1.76193082 -7.72700908 -0.64391742 0 0 Z " fill="#F8F8F8" transform="translate(664,442)"/>
<path d="M0 0 C3 0.25 3 0.25 5 2.25 C5.7166207 4.56847874 6.38242027 6.90319703 7 9.25 C7.33 10.24 7.66 11.23 8 12.25 C7.0625 14.4375 7.0625 14.4375 6 16.25 C6.66 16.91 7.32 17.57 8 18.25 C8.33333333 23.58333333 8.33333333 23.58333333 7 26.25 C5.35 26.25 3.7 26.25 2 26.25 C2 24.27 2 22.29 2 20.25 C1.34 19.92 0.68 19.59 0 19.25 C-0.226875 20.054375 -0.45375 20.85875 -0.6875 21.6875 C-2 24.25 -2 24.25 -4.5 25.1875 C-5.325 25.208125 -6.15 25.22875 -7 25.25 C-9 23.25 -9 23.25 -9.1875 19.875 C-9.04410663 17.10272822 -8.83710258 14.86594556 -8 12.25 C-7.34 12.25 -6.68 12.25 -6 12.25 C-5.95101563 11.55132813 -5.90203125 10.85265625 -5.8515625 10.1328125 C-5.77679687 9.22273437 -5.70203125 8.31265625 -5.625 7.375 C-5.55539063 6.47007812 -5.48578125 5.56515625 -5.4140625 4.6328125 C-4.76815823 0.91581624 -3.7061928 0.3088494 0 0 Z " fill="#E2E2E2" transform="translate(24,898.75)"/>
<path d="M0 0 C0.33 0 0.66 0 1 0 C1 5.94 1 11.88 1 18 C0.34 18 -0.32 18 -1 18 C-1 18.66 -1 19.32 -1 20 C-3.97 20.33 -6.94 20.66 -10 21 C-10.33 20.01 -10.66 19.02 -11 18 C-11.66 18 -12.32 18 -13 18 C-13 16.35 -13 14.7 -13 13 C-14.32 13 -15.64 13 -17 13 C-17 11.68 -17 10.36 -17 9 C-13.535 8.505 -13.535 8.505 -10 8 C-10.66 7.34 -11.32 6.68 -12 6 C-11.67 5.01 -11.34 4.02 -11 3 C-9.68 3.99 -8.36 4.98 -7 6 C-5.35 5.01 -3.7 4.02 -2 3 C-2 4.32 -2 5.64 -2 7 C-1.855625 6.21625 -1.71125 5.4325 -1.5625 4.625 C-1 2 -1 2 0 0 Z " fill="#E9E9E9" transform="translate(31,876)"/>
<path d="M0 0 C1.051875 0.5878125 1.051875 0.5878125 2.125 1.1875 C2.125 1.8475 2.125 2.5075 2.125 3.1875 C3.445 3.8475 4.765 4.5075 6.125 5.1875 C6.60775862 11.46336207 6.60775862 11.46336207 4.5 14.625 C1.48757342 16.60685959 -0.33268939 16.57253376 -3.875 16.1875 C-4.535 15.8575 -5.195 15.5275 -5.875 15.1875 C-5.875 14.5275 -5.875 13.8675 -5.875 13.1875 C-6.865 12.8575 -7.855 12.5275 -8.875 12.1875 C-8.875 8.85416667 -8.875 5.52083333 -8.875 2.1875 C-3.58269231 -1.0125 -3.58269231 -1.0125 0 0 Z " fill="#4F4F4F" transform="translate(554.875,523.8125)"/>
<path d="M0 0 C-0.88188976 6.5511811 -0.88188976 6.5511811 -1.625 9.375 C-1.74875 9.91125 -1.8725 10.4475 -2 11 C-1.67 11.33 -1.34 11.66 -1 12 C-0.95919217 13.99958364 -0.95745644 16.00045254 -1 18 C-1.66 18.33 -2.32 18.66 -3 19 C-3.4640625 17.5459375 -3.4640625 17.5459375 -3.9375 16.0625 C-4.69523342 13.15934208 -4.69523342 13.15934208 -6 12 C-7.66617115 11.95936168 -9.33388095 11.957279 -11 12 C-11.99 14.475 -11.99 14.475 -13 17 C-14.65 17 -16.3 17 -18 17 C-18.33 17.66 -18.66 18.32 -19 19 C-18.67 17.68 -18.34 16.36 -18 15 C-16.68 14.67 -15.36 14.34 -14 14 C-13.23681405 9.17867673 -13.23681405 9.17867673 -13.0625 4.3125 C-12.98971276 1.61937205 -12.56571188 0.19199663 -11 -2 C-7.07040122 -4.18311043 -3.6835409 -1.77093312 0 0 Z " fill="#DCDCDC" transform="translate(32,930)"/>
<path d="M0 0 C5.45454545 0.45454545 5.45454545 0.45454545 8 3 C8.33 2.01 8.66 1.02 9 0 C9.66 0 10.32 0 11 0 C11.19926199 10.16236162 11.19926199 10.16236162 10 14 C9.01 14.495 9.01 14.495 8 15 C8.66 15.66 9.32 16.32 10 17 C8.35 17.33 6.7 17.66 5 18 C5 17.34 5 16.68 5 16 C3.68 16.33 2.36 16.66 1 17 C1 16.34 1 15.68 1 15 C0.34 14.67 -0.32 14.34 -1 14 C-0.34 14 0.32 14 1 14 C1 13.34 1 12.68 1 12 C0.01 12 -0.98 12 -2 12 C-2.05395478 10.37536158 -2.09277195 8.75021459 -2.125 7.125 C-2.14820313 6.22007812 -2.17140625 5.31515625 -2.1953125 4.3828125 C-2 2 -2 2 0 0 Z " fill="#DFDFDF" transform="translate(18,845)"/>
<path d="M0 0 C4.70588235 0.70588235 4.70588235 0.70588235 6 2 C6.04080783 3.99958364 6.04254356 6.00045254 6 8 C5.01 8.495 5.01 8.495 4 9 C4.66 9.33 5.32 9.66 6 10 C6 12.64 6 15.28 6 18 C3.50638429 16.79618552 1.31856917 15.54571278 -1 14 C-1.99 14 -2.98 14 -4 14 C-4 15.32 -4 16.64 -4 18 C-4.99 17.67 -5.98 17.34 -7 17 C-7.22036864 13.14354879 -6.60355101 10.50776784 -5 7 C-5.66 7 -6.32 7 -7 7 C-7 5.02 -7 3.04 -7 1 C-6.34 1 -5.68 1 -5 1 C-5 2.32 -5 3.64 -5 5 C-4.01 5 -3.02 5 -2 5 C-1.855625 4.360625 -1.71125 3.72125 -1.5625 3.0625 C-1 1 -1 1 0 0 Z " fill="#E5E5E5" transform="translate(23,764)"/>
<path d="M0 0 C0.66 0 1.32 0 2 0 C2 1.65 2 3.3 2 5 C2.99 5 3.98 5 5 5 C5.33 3.68 5.66 2.36 6 1 C8.375 0.375 8.375 0.375 11 0 C13 2 13 2 13.25 5 C13 8 13 8 11 10 C11.66 10.33 12.32 10.66 13 11 C13 11.66 13 12.32 13 13 C9.7 13 6.4 13 3 13 C3 13.99 3 14.98 3 16 C2.34 16 1.68 16 1 16 C0.67 13.69 0.34 11.38 0 9 C0.66 9 1.32 9 2 9 C2 8.34 2 7.68 2 7 C1.34 7 0.68 7 0 7 C0 4.69 0 2.38 0 0 Z " fill="#D4D4D4" transform="translate(16,828)"/>
<path d="M0 0 C0.33 0 0.66 0 1 0 C1.08729047 4.06236402 1.14048992 8.12448589 1.1875 12.1875 C1.21263672 13.33798828 1.23777344 14.48847656 1.26367188 15.67382812 C1.27817383 17.34155273 1.27817383 17.34155273 1.29296875 19.04296875 C1.31653442 20.57473755 1.31653442 20.57473755 1.34057617 22.13745117 C0.94974253 25.4224149 -0.1256904 27.30851735 -2 30 C-2.66 29.01 -3.32 28.02 -4 27 C-3.67 26.34 -3.34 25.68 -3 25 C-2.77532169 23.46331135 -2.59203195 21.92031946 -2.4375 20.375 C-2.35371094 19.55773437 -2.26992188 18.74046875 -2.18359375 17.8984375 C-2.12300781 17.27195312 -2.06242187 16.64546875 -2 16 C-2.66 16 -3.32 16 -4 16 C-4.33 17.32 -4.66 18.64 -5 20 C-5.598125 19.525625 -6.19625 19.05125 -6.8125 18.5625 C-9.00382924 16.83534256 -9.00382924 16.83534256 -12 16 C-12 14.68 -12 13.36 -12 12 C-8.7 12 -5.4 12 -2 12 C-2 11.34 -2 10.68 -2 10 C-3.32 9.67 -4.64 9.34 -6 9 C-5.01 8.34 -4.02 7.68 -3 7 C-1.92863949 4.69855891 -0.92010283 2.3659787 0 0 Z " fill="#E8E8E8" transform="translate(31,829)"/>
<path d="M0 0 C6.6 0 13.2 0 20 0 C20.33 1.65 20.66 3.3 21 5 C13.74 5 6.48 5 -1 5 C-0.67 3.35 -0.34 1.7 0 0 Z " fill="#A9A9A9" transform="translate(14,868)"/>
<path d="M0 0 C5.45454545 0.45454545 5.45454545 0.45454545 8 3 C8.14517744 5.9093558 8.18630796 8.719946 8.125 11.625 C8.11597656 12.42679688 8.10695313 13.22859375 8.09765625 14.0546875 C8.07406223 16.03658523 8.03819065 18.01832981 8 20 C7.01 20.33 6.02 20.66 5 21 C5 18.36 5 15.72 5 13 C4.01 12.67 3.02 12.34 2 12 C2.99 11.67 3.98 11.34 5 11 C4.34 8.69 3.68 6.38 3 4 C1.35 4.33 -0.3 4.66 -2 5 C-2.33 5.99 -2.66 6.98 -3 8 C-3.99 8 -4.98 8 -6 8 C-6 6.68 -6 5.36 -6 4 C-6.66 4 -7.32 4 -8 4 C-7.67 3.01 -7.34 2.02 -7 1 C-5.824375 1.309375 -5.824375 1.309375 -4.625 1.625 C-3.75875 1.74875 -2.8925 1.8725 -2 2 C-1.34 1.34 -0.68 0.68 0 0 Z " fill="#E5E5E5" transform="translate(24,761)"/>
<path d="M0 0 C2.31243792 -0.02685412 4.6249627 -0.04632841 6.9375 -0.0625 C8.22527344 -0.07410156 9.51304688 -0.08570313 10.83984375 -0.09765625 C14 0 14 0 15 1 C15.1875 3.9375 15.1875 3.9375 15 7 C13 9 13 9 10 9.3125 C9.01 9.209375 8.02 9.10625 7 9 C5 6 5 6 5 3 C3.35 3 1.7 3 0 3 C0 2.01 0 1.02 0 0 Z " fill="#656565" transform="translate(14,963)"/>
<path d="M0 0 C2.625 0.25 2.625 0.25 4.4375 1.375 C5.625 3.25 5.625 3.25 5.625 9.25 C0.675 9.25 -4.275 9.25 -9.375 9.25 C-9.375 8.26 -9.375 7.27 -9.375 6.25 C-7.725 6.25 -6.075 6.25 -4.375 6.25 C-4.230625 5.445625 -4.08625 4.64125 -3.9375 3.8125 C-3.17394875 0.33409987 -3.17394875 0.33409987 0 0 Z " fill="#656565" transform="translate(23.375,940.75)"/>
<path d="M0 0 C0 0.99 0 1.98 0 3 C-0.99 3.33 -1.98 3.66 -3 4 C-3.33 5.65 -3.66 7.3 -4 9 C-2.68 9 -1.36 9 0 9 C0 9.99 0 10.98 0 12 C-0.67546875 11.79503906 -1.3509375 11.59007812 -2.046875 11.37890625 C-2.93890625 11.10949219 -3.8309375 10.84007812 -4.75 10.5625 C-5.63171875 10.29566406 -6.5134375 10.02882813 -7.421875 9.75390625 C-9.60565835 9.11531506 -11.78835498 8.53224167 -14 8 C-14 6.68 -14 5.36 -14 4 C-12.0429132 3.32968281 -10.08428887 2.66385317 -8.125 2 C-7.03445312 1.62875 -5.94390625 1.2575 -4.8203125 0.875 C-2 0 -2 0 0 0 Z " fill="#545454" transform="translate(29,973)"/>
<path d="M0 0 C4.875 0.875 4.875 0.875 6 2 C6.1875 4.4375 6.1875 4.4375 6 7 C4 9 4 9 1.1875 9.4375 C-3.03036531 8.85857731 -4.40130534 7.28658443 -7 4 C-7 3.01 -7 2.02 -7 1 C-6.01 1 -5.02 1 -4 1 C-3.67 1.99 -3.34 2.98 -3 4 C-2.01 2.68 -1.02 1.36 0 0 Z " fill="#515151" transform="translate(23,817)"/>
<path d="M0 0 C4.875 0.875 4.875 0.875 6 2 C6.1875 4.4375 6.1875 4.4375 6 7 C4 9 4 9 1.1875 9.4375 C-3.03036531 8.85857731 -4.40130534 7.28658443 -7 4 C-7 3.01 -7 2.02 -7 1 C-6.34 1 -5.68 1 -5 1 C-4.34 1.99 -3.68 2.98 -3 4 C-2.01 2.68 -1.02 1.36 0 0 Z " fill="#4D4D4D" transform="translate(23,784)"/>
<path d="M0 0 C4.875 0.875 4.875 0.875 6 2 C6.1875 4.4375 6.1875 4.4375 6 7 C5.34 7.66 4.68 8.32 4 9 C-1.45454545 8.54545455 -1.45454545 8.54545455 -4 6 C-3.34 6 -2.68 6 -2 6 C-2 5.01 -2 4.02 -2 3 C-2.99 3.495 -2.99 3.495 -4 4 C-4.33 4.99 -4.66 5.98 -5 7 C-5.66 7 -6.32 7 -7 7 C-7 5.35 -7 3.7 -7 2 C-2.25 0.875 -2.25 0.875 0 2 C0 1.34 0 0.68 0 0 Z " fill="#555555" transform="translate(23,806)"/>
<path d="M0 0 C2.8125 2.3125 2.8125 2.3125 5 5 C5 5.99 5 6.98 5 8 C4.01 7.67 3.02 7.34 2 7 C1.67 6.34 1.34 5.68 1 5 C0.01 6.32 -0.98 7.64 -2 9 C-6.875 8.125 -6.875 8.125 -8 7 C-8.25 4.5625 -8.25 4.5625 -8 2 C-4.72942857 -0.18038095 -3.79480531 -0.63246755 0 0 Z " fill="#4C4C4C" transform="translate(24,795)"/>
<path d="M0 0 C3 0.25 3 0.25 5 2.25 C5.25 4.75 5.25 4.75 5 7.25 C3 9.25 3 9.25 0 9.5 C-3 9.25 -3 9.25 -5 7.25 C-5.25 4.75 -5.25 4.75 -5 2.25 C-3 0.25 -3 0.25 0 0 Z " fill="#585858" transform="translate(24,951.75)"/>
<path d="M0 0 C3 0.25 3 0.25 5 2.25 C5.25 4.75 5.25 4.75 5 7.25 C3 9.25 3 9.25 0 9.5 C-3 9.25 -3 9.25 -5 7.25 C-5.25 4.75 -5.25 4.75 -5 2.25 C-3 0.25 -3 0.25 0 0 Z " fill="#555555" transform="translate(24,898.75)"/>
<path d="M0 0 C1.65 0.99 3.3 1.98 5 3 C6.65 2.01 8.3 1.02 10 0 C9.125 3.875 9.125 3.875 8 5 C8.66 5.33 9.32 5.66 10 6 C10 6.99 10 7.98 10 9 C5.05 9 0.1 9 -5 9 C-5 8.01 -5 7.02 -5 6 C-1.535 5.505 -1.535 5.505 2 5 C1.34 4.34 0.68 3.68 0 3 C0 2.01 0 1.02 0 0 Z " fill="#5F5F5F" transform="translate(19,879)"/>
<path d="M0 0 C0.66 0.66 1.32 1.32 2 2 C4.21072977 2.24253813 4.21072977 2.24253813 6.625 2.125 C7.44226563 2.10695313 8.25953125 2.08890625 9.1015625 2.0703125 C9.72804688 2.04710937 10.35453125 2.02390625 11 2 C12.90608098 5.21182149 13.22266247 7.53882603 13.125 11.25 C13.10695313 12.14203125 13.08890625 13.0340625 13.0703125 13.953125 C13.03550781 14.96632813 13.03550781 14.96632813 13 16 C9.71669856 13.07651242 9.04133067 10.24542505 8 6 C3.85906302 5.79029441 3.85906302 5.79029441 0 7 C0 4.69 0 2.38 0 0 Z " fill="#E8E8E8" transform="translate(19,894)"/>
<path d="M0 0 C1.2065625 0.0309375 1.2065625 0.0309375 2.4375 0.0625 C2.7675 1.7125 3.0975 3.3625 3.4375 5.0625 C3.7675 3.7425 4.0975 2.4225 4.4375 1.0625 C5.0975 1.0625 5.7575 1.0625 6.4375 1.0625 C6.5625 3.4375 6.5625 3.4375 6.4375 6.0625 C4.4375 8.0625 4.4375 8.0625 1.4375 8.3125 C-1.5625 8.0625 -1.5625 8.0625 -3.5625 6.0625 C-3.75 3.5 -3.75 3.5 -3.5625 1.0625 C-2.5625 0.0625 -2.5625 0.0625 0 0 Z " fill="#515151" transform="translate(22.5625,930.9375)"/>
<path d="M0 0 C0 0.66 0 1.32 0 2 C1.32 1.67 2.64 1.34 4 1 C4 1.66 4 2.32 4 3 C4.99 3 5.98 3 7 3 C7 3.66 7 4.32 7 5 C6.01 5.495 6.01 5.495 5 6 C5.66 6.66 6.32 7.32 7 8 C5.35 8.33 3.7 8.66 2 9 C2 8.34 2 7.68 2 7 C0.68 7.33 -0.64 7.66 -2 8 C-2 7.34 -2 6.68 -2 6 C-2.66 5.67 -3.32 5.34 -4 5 C-3.34 5 -2.68 5 -2 5 C-2 4.34 -2 3.68 -2 3 C-2.99 3 -3.98 3 -5 3 C-5 2.34 -5 1.68 -5 1 C-2 0 -2 0 0 0 Z " fill="#595959" transform="translate(21,854)"/>
<path d="M0 0 C4.70588235 0.70588235 4.70588235 0.70588235 6 2 C6.04080783 3.99958364 6.04254356 6.00045254 6 8 C5.01 7.67 4.02 7.34 3 7 C3 5.68 3 4.36 3 3 C2.34 2.67 1.68 2.34 1 2 C0.773125 2.804375 0.54625 3.60875 0.3125 4.4375 C-1 7 -1 7 -3.5 7.9375 C-4.325 7.958125 -5.15 7.97875 -6 8 C-8 6 -8 6 -8.125 3.375 C-8.08375 2.59125 -8.0425 1.8075 -8 1 C-7.34 1 -6.68 1 -6 1 C-5.814375 1.9590625 -5.814375 1.9590625 -5.625 2.9375 C-5.315625 3.9584375 -5.315625 3.9584375 -5 5 C-4.34 5.33 -3.68 5.66 -3 6 C-2.690625 5.195625 -2.38125 4.39125 -2.0625 3.5625 C-1 1 -1 1 0 0 Z " fill="#515151" transform="translate(23,916)"/>
<path d="M0 0 C5.45454545 0.45454545 5.45454545 0.45454545 8 3 C8.33 2.01 8.66 1.02 9 0 C9.66 0 10.32 0 11 0 C11 2.64 11 5.28 11 8 C8.50638429 6.79618552 6.31856917 5.54571278 4 4 C3.01 4 2.02 4 1 4 C1 5.32 1 6.64 1 8 C0.01 7.67 -0.98 7.34 -2 7 C-2.125 4.625 -2.125 4.625 -2 2 C-1.34 1.34 -0.68 0.68 0 0 Z " fill="#606060" transform="translate(18,774)"/>
<path d="M0 0 C5.45454545 0.45454545 5.45454545 0.45454545 8 3 C8.33 2.01 8.66 1.02 9 0 C9.66 0 10.32 0 11 0 C11 2.64 11 5.28 11 8 C8.53199953 6.84826645 6.95216435 5.95216435 5 4 C3.68 4 2.36 4 1 4 C1 5.32 1 6.64 1 8 C0.01 7.67 -0.98 7.34 -2 7 C-2.125 4.625 -2.125 4.625 -2 2 C-1.34 1.34 -0.68 0.68 0 0 Z " fill="#5E5E5E" transform="translate(18,845)"/>
<path d="M0 0 C0.66 0 1.32 0 2 0 C2 1.65 2 3.3 2 5 C2.99 5 3.98 5 5 5 C5.33 3.68 5.66 2.36 6 1 C8.375 0.375 8.375 0.375 11 0 C13 2 13 2 13.125 5.125 C13.08375 6.07375 13.0425 7.0225 13 8 C12.01 7.67 11.02 7.34 10 7 C10 5.68 10 4.36 10 3 C9.34 3 8.68 3 8 3 C7.34 4.65 6.68 6.3 6 8 C3.03 7.505 3.03 7.505 0 7 C0 4.69 0 2.38 0 0 Z " fill="#535353" transform="translate(16,828)"/>
<path d="M0 0 C4.70588235 0.70588235 4.70588235 0.70588235 6 2 C6.04080783 3.99958364 6.04254356 6.00045254 6 8 C5.01 7.67 4.02 7.34 3 7 C3 5.68 3 4.36 3 3 C2.34 3 1.68 3 1 3 C0.34 4.65 -0.32 6.3 -1 8 C-3.97 7.505 -3.97 7.505 -7 7 C-7 5.02 -7 3.04 -7 1 C-6.34 1 -5.68 1 -5 1 C-5 2.32 -5 3.64 -5 5 C-4.01 5 -3.02 5 -2 5 C-1.855625 4.360625 -1.71125 3.72125 -1.5625 3.0625 C-1 1 -1 1 0 0 Z " fill="#4E4E4E" transform="translate(23,764)"/>
<path d="M0 0 C0.66 0 1.32 0 2 0 C2 1.32 2 2.64 2 4 C4.475 4.99 4.475 4.99 7 6 C6.38125 6.598125 5.7625 7.19625 5.125 7.8125 C2.86323046 10.00811144 2.86323046 10.00811144 1 13 C0.67 11.68 0.34 10.36 0 9 C-0.99 9 -1.98 9 -3 9 C-2.01 6.03 -1.02 3.06 0 0 Z " fill="#CDCDCD" transform="translate(19,809)"/>
<path d="M0 0 C0.99 0.99 1.98 1.98 3 3 C2.34 4.32 1.68 5.64 1 7 C0.34 7 -0.32 7 -1 7 C-1 7.66 -1 8.32 -1 9 C-2.98 9 -4.96 9 -7 9 C-7.66 10.32 -8.32 11.64 -9 13 C-9.36305732 7.55414013 -9.36305732 7.55414013 -7.8125 5.1875 C-5.57968261 3.72461964 -3.62655933 3.35494045 -1 3 C-0.67 2.01 -0.34 1.02 0 0 Z " fill="#DFDFDF" transform="translate(24,799)"/>
<path d="M0 0 C1.65 0.33 3.3 0.66 5 1 C5.33 2.32 5.66 3.64 6 5 C5.38125 5.28875 4.7625 5.5775 4.125 5.875 C1.86674235 6.93720042 1.86674235 6.93720042 0 9 C-0.99 8.67 -1.98 8.34 -3 8 C-2.37240135 5.07120629 -1.41377341 2.63904371 0 0 Z " fill="#E6E6E6" transform="translate(19,777)"/>
<path d="M0 0 C0.66 0 1.32 0 2 0 C2 0.66 2 1.32 2 2 C3.98 2 5.96 2 8 2 C8 1.34 8 0.68 8 0 C8.66 0 9.32 0 10 0 C9.67 1.65 9.34 3.3 9 5 C4.545 5.495 4.545 5.495 0 6 C0 5.34 0 4.68 0 4 C-0.99 4 -1.98 4 -3 4 C-3 3.34 -3 2.68 -3 2 C-2.01 2 -1.02 2 0 2 C0 1.34 0 0.68 0 0 Z " fill="#686868" transform="translate(19,909)"/>
<path d="M0 0 C1.42098605 2.66434884 1.19767261 4.90991085 1 7.875 C0.34 7.545 -0.32 7.215 -1 6.875 C-1.33 5.555 -1.66 4.235 -2 2.875 C-6.29 2.545 -10.58 2.215 -15 1.875 C-14 -0.125 -14 -0.125 -12.4375 -0.75 C-3.71812081 -2.09144295 -3.71812081 -2.09144295 0 0 Z " fill="#DEDEDE" transform="translate(30,961.125)"/>
<path d="M0 0 C1.2065625 0.0309375 1.2065625 0.0309375 2.4375 0.0625 C2.1075 1.0525 1.7775 2.0425 1.4375 3.0625 C0.4475 3.0625 -0.5425 3.0625 -1.5625 3.0625 C-1.8925 4.3825 -2.2225 5.7025 -2.5625 7.0625 C-0.5825 7.0625 1.3975 7.0625 3.4375 7.0625 C3.4375 7.3925 3.4375 7.7225 3.4375 8.0625 C-0.8525 8.0625 -5.1425 8.0625 -9.5625 8.0625 C-9.5625 7.4025 -9.5625 6.7425 -9.5625 6.0625 C-7.9125 6.0625 -6.2625 6.0625 -4.5625 6.0625 C-4.418125 5.258125 -4.27375 4.45375 -4.125 3.625 C-3.347189 0.08163876 -3.347189 0.08163876 0 0 Z " fill="#515151" transform="translate(23.5625,940.9375)"/>
<path d="M0 0 C1.32 0.33 2.64 0.66 4 1 C3.625 3.4375 3.625 3.4375 3 6 C2.01 6.495 2.01 6.495 1 7 C1 5.68 1 4.36 1 3 C-1.475 4.485 -1.475 4.485 -4 6 C-4.99 5.01 -5.98 4.02 -7 3 C-7.99 3.495 -7.99 3.495 -9 4 C-9 3.01 -9 2.02 -9 1 C-6.03 1.33 -3.06 1.66 0 2 C0 1.34 0 0.68 0 0 Z " fill="#E3E3E3" transform="translate(27,877)"/>
<path d="M0 0 C0.66 0 1.32 0 2 0 C1.67 1.32 1.34 2.64 1 4 C-0.76774419 4.53122363 -2.53934083 5.04964073 -4.3125 5.5625 C-5.29863281 5.85253906 -6.28476562 6.14257812 -7.30078125 6.44140625 C-10 7 -10 7 -13 6 C-7.81454918 1.06147541 -7.81454918 1.06147541 -3.6875 0.75 C-2.3571875 0.87375 -2.3571875 0.87375 -1 1 C-0.67 0.67 -0.34 0.34 0 0 Z " fill="#E0E0E0" transform="translate(28,970)"/>
<path d="M0 0 C2.31 0.33 4.62 0.66 7 1 C7 1.66 7 2.32 7 3 C4.69 3.66 2.38 4.32 0 5 C-0.33 6.32 -0.66 7.64 -1 9 C-2.65 9 -4.3 9 -6 9 C-6.33 9.66 -6.66 10.32 -7 11 C-6.67 9.68 -6.34 8.36 -6 7 C-5.38125 6.95875 -4.7625 6.9175 -4.125 6.875 C-3.42375 6.58625 -2.7225 6.2975 -2 6 C-0.6954344 3.00384054 -0.6954344 3.00384054 0 0 Z " fill="#E4E4E4" transform="translate(20,938)"/>
<path d="M0 0 C-0.48901099 6.35714286 -0.48901099 6.35714286 -2.9375 9.4375 C-5 11 -5 11 -7 11 C-6.57781184 9.3501725 -6.13675575 7.70516335 -5.6875 6.0625 C-5.44386719 5.14597656 -5.20023437 4.22945313 -4.94921875 3.28515625 C-4.47935547 2.15400391 -4.47935547 2.15400391 -4 1 C-1 0 -1 0 0 0 Z " fill="#585858" transform="translate(401,348)"/>
<path d="M0 0 C2.64 0 5.28 0 8 0 C8.125 2.875 8.125 2.875 8 6 C6 8 6 8 2.875 8.125 C1.451875 8.063125 1.451875 8.063125 0 8 C-0.33 6.68 -0.66 5.36 -1 4 C1.97 4.495 1.97 4.495 5 5 C5.33 3.68 5.66 2.36 6 1 C4.02 1 2.04 1 0 1 C0 0.67 0 0.34 0 0 Z " fill="#515151" transform="translate(21,964)"/>
<path d="M0 0 C0.66 0 1.32 0 2 0 C2.33 1.32 2.66 2.64 3 4 C4.32 4.33 5.64 4.66 7 5 C7.33 3.35 7.66 1.7 8 0 C8.66 0 9.32 0 10 0 C10.125 2.375 10.125 2.375 10 5 C8 7 8 7 5 7.3125 C3.515 7.1578125 3.515 7.1578125 2 7 C0 4 0 4 0 0 Z " fill="#535353" transform="translate(19,890)"/>
<path d="M0 0 C-0.99 0.495 -0.99 0.495 -2 1 C-2 2.65 -2 4.3 -2 6 C-6.875 7 -6.875 7 -8 7 C-8.1875 4.625 -8.1875 4.625 -8 2 C-4.77208445 -0.1519437 -3.71599191 -0.20086443 0 0 Z " fill="#8F8F8F" transform="translate(24,795)"/>
<path d="M0 0 C4.875 0.875 4.875 0.875 6 2 C6.04063832 3.66617115 6.042721 5.33388095 6 7 C4 7 2 7 0 7 C0 4.69 0 2.38 0 0 Z " fill="#575757" transform="translate(23,784)"/>
<path d="M0 0 C0.99 0 1.98 0 3 0 C3 0.66 3 1.32 3 2 C3.66 2 4.32 2 5 2 C4.67 4.31 4.34 6.62 4 9 C3.01 8.67 2.02 8.34 1 8 C1 6.68 1 5.36 1 4 C0.34 4 -0.32 4 -1 4 C-0.67 2.68 -0.34 1.36 0 0 Z " fill="#D3D3D3" transform="translate(16,913)"/>
<path d="M0 0 C2.25 1.9375 2.25 1.9375 4 4 C3.01 4.495 3.01 4.495 2 5 C1.34444881 7.52733235 1.34444881 7.52733235 1 10 C0.67 10 0.34 10 0 10 C0 8.02 0 6.04 0 4 C-1.32 4 -2.64 4 -4 4 C-4 3.01 -4 2.02 -4 1 C-2.25 0.25 -2.25 0.25 0 0 Z " fill="#D8D8D8" transform="translate(25,927)"/>
<path d="M0 0 C0.66 0.33 1.32 0.66 2 1 C0.43122326 2.5358444 -1.15556154 4.05331331 -2.75 5.5625 C-3.63171875 6.40941406 -4.5134375 7.25632812 -5.421875 8.12890625 C-8 10 -8 10 -10.328125 9.77734375 C-10.87984375 9.52082031 -11.4315625 9.26429688 -12 9 C-12 8.34 -12 7.68 -12 7 C-11.21753906 6.57847656 -10.43507813 6.15695312 -9.62890625 5.72265625 C-8.61699219 5.17480469 -7.60507812 4.62695312 -6.5625 4.0625 C-5.55316406 3.51722656 -4.54382813 2.97195313 -3.50390625 2.41015625 C-1.13329507 1.22300532 -1.13329507 1.22300532 0 0 Z " fill="#E1E1E1" transform="translate(581,501)"/>
<path d="M0 0 C4.29 0 8.58 0 13 0 C13 0.66 13 1.32 13 2 C9.7 2 6.4 2 3 2 C3 2.99 3 3.98 3 5 C2.34 5 1.68 5 1 5 C0.67 3.35 0.34 1.7 0 0 Z " fill="#4D4D4D" transform="translate(16,839)"/>
<path d="M0 0 C4.875 0.875 4.875 0.875 6 2 C6.04063832 3.66617115 6.042721 5.33388095 6 7 C4.35 7 2.7 7 1 7 C0 2.25 0 2.25 0 0 Z " fill="#939393" transform="translate(23,806)"/>
<path d="M0 0 C0.7425 0.185625 1.485 0.37125 2.25 0.5625 C4.94990963 0.99203108 6.44631077 0.85122974 9 0 C9 0.66 9 1.32 9 2 C8.360625 2.268125 7.72125 2.53625 7.0625 2.8125 C4.66868314 3.88667752 4.66868314 3.88667752 4 7 C3.01 7 2.02 7 1 7 C1 5.68 1 4.36 1 3 C0.34 3 -0.32 3 -1 3 C-0.67 2.01 -0.34 1.02 0 0 Z " fill="#DADADA" transform="translate(17,762)"/>
<path d="M0 0 C0.66 0 1.32 0 2 0 C2.33 0.99 2.66 1.98 3 3 C3.66 3.33 4.32 3.66 5 4 C5 5.65 5 7.3 5 9 C4.34 9 3.68 9 3 9 C3 8.01 3 7.02 3 6 C1.68 6 0.36 6 -1 6 C-1.042721 4.33388095 -1.04063832 2.66617115 -1 1 C-0.67 0.67 -0.34 0.34 0 0 Z " fill="#DEDEDE" transform="translate(26,976)"/>
<path d="M0 0 C0.66 0.33 1.32 0.66 2 1 C6.14503661 1.24787017 6.14503661 1.24787017 10 0 C9.34 1.65 8.68 3.3 8 5 C6.02 5 4.04 5 2 5 C2 4.34 2 3.68 2 3 C1.34 3 0.68 3 0 3 C-0.33 3.66 -0.66 4.32 -1 5 C-0.67 3.35 -0.34 1.7 0 0 Z " fill="#DBDBDB" transform="translate(19,906)"/>
<path d="M0 0 C1.2065625 0.0309375 1.2065625 0.0309375 2.4375 0.0625 C2.4375 2.0425 2.4375 4.0225 2.4375 6.0625 C1.81875 5.876875 1.2 5.69125 0.5625 5.5 C-1.60410178 4.82563824 -1.60410178 4.82563824 -3.5625 6.0625 C-3.605221 4.39638095 -3.60313832 2.72867115 -3.5625 1.0625 C-2.5625 0.0625 -2.5625 0.0625 0 0 Z " fill="#7E7E7E" transform="translate(22.5625,930.9375)"/>
<path d="M0 0 C3.3 0 6.6 0 10 0 C10 0.33 10 0.66 10 1 C8.02 1.33 6.04 1.66 4 2 C4.66 2.33 5.32 2.66 6 3 C5.67 3.99 5.34 4.98 5 6 C2.525 5.01 2.525 5.01 0 4 C0 2.68 0 1.36 0 0 Z " fill="#C9C9C9" transform="translate(19,841)"/>
<path d="M0 0 C1.32 0.99 2.64 1.98 4 3 C2.88625 3.433125 1.7725 3.86625 0.625 4.3125 C-3.17512334 5.69911119 -3.17512334 5.69911119 -5 9 C-5.66 7.68 -6.32 6.36 -7 5 C-3.375 2 -3.375 2 0 2 C0 1.34 0 0.68 0 0 Z " fill="#D2D2D2" transform="translate(25,780)"/>
<path d="M0 0 C4.75 0.75 4.75 0.75 7 3 C4.525 4.485 4.525 4.485 2 6 C1.34 5.34 0.68 4.68 0 4 C0 2.68 0 1.36 0 0 Z " fill="#4F4F4F" transform="translate(236,670)"/>
<path d="M0 0 C1.65 0.33 3.3 0.66 5 1 C4.67 2.32 4.34 3.64 4 5 C2.35 4.67 0.7 4.34 -1 4 C-0.67 2.68 -0.34 1.36 0 0 Z " fill="#CFCFCF" transform="translate(22,954)"/>
<path d="M0 0 C1.65 0.33 3.3 0.66 5 1 C4.67 2.32 4.34 3.64 4 5 C2.35 4.67 0.7 4.34 -1 4 C-0.67 2.68 -0.34 1.36 0 0 Z " fill="#CDCDCD" transform="translate(22,901)"/>
<path d="M0 0 C0 1.32 0 2.64 0 4 C-2.97 3.505 -2.97 3.505 -6 3 C-6 2.34 -6 1.68 -6 1 C-6.66 0.67 -7.32 0.34 -8 0 C-4.71023192 -1.09658936 -3.28696233 -0.79953138 0 0 Z " fill="#929292" transform="translate(23,977)"/>
<path d="M0 0 C0.99 0 1.98 0 3 0 C3.33 0.99 3.66 1.98 4 3 C4.66 2.34 5.32 1.68 6 1 C6 3.31 6 5.62 6 8 C2.57701423 6.85900474 1.85241234 5.99914379 0 3 C0 2.01 0 1.02 0 0 Z " fill="#666666" transform="translate(16,818)"/>
<path d="M0 0 C0.66 0 1.32 0 2 0 C2 2.64 2 5.28 2 8 C-1.16115776 6.63016497 -1.9927092 6.0109362 -4 3 C-3.01 3 -2.02 3 -1 3 C-0.67 2.01 -0.34 1.02 0 0 Z " fill="#4C4C4C" transform="translate(27,774)"/>
<path d="M0 0 C1.32 0.33 2.64 0.66 4 1 C3.67 3.31 3.34 5.62 3 8 C2.34 8 1.68 8 1 8 C0.67 5.36 0.34 2.72 0 0 Z " fill="#E7E7E7" transform="translate(28,929)"/>
<path d="M0 0 C0.99 0 1.98 0 3 0 C3 0.66 3 1.32 3 2 C3.66 2 4.32 2 5 2 C5.33 1.34 5.66 0.68 6 0 C5.67 1.65 5.34 3.3 5 5 C3.35 4.67 1.7 4.34 0 4 C0 2.68 0 1.36 0 0 Z " fill="#CECECE" transform="translate(21,890)"/>
<path d="M0 0 C0 0.66 0 1.32 0 2 C0.99 1.67 1.98 1.34 3 1 C2.67 2.65 2.34 4.3 2 6 C1.01 5.67 0.02 5.34 -1 5 C-1 4.34 -1 3.68 -1 3 C-2.32 3 -3.64 3 -5 3 C-5 2.34 -5 1.68 -5 1 C-2 0 -2 0 0 0 Z " fill="#7D7D7D" transform="translate(21,854)"/>
<path d="M0 0 C0.33 0.99 0.66 1.98 1 3 C-2.465 4.485 -2.465 4.485 -6 6 C-6 3 -6 3 -4.6875 1.3125 C-3 0 -3 0 0 0 Z " fill="#565656" transform="translate(576,502)"/>
<path d="M0 0 C1.98 0 3.96 0 6 0 C5.67 1.32 5.34 2.64 5 4 C3.35 3.67 1.7 3.34 0 3 C0 2.01 0 1.02 0 0 Z " fill="#D2D2D2" transform="translate(21,966)"/>
<path d="M0 0 C0.66 0 1.32 0 2 0 C2 0.99 2 1.98 2 3 C3.32 3.33 4.64 3.66 6 4 C4.68 4 3.36 4 2 4 C2 4.66 2 5.32 2 6 C1.34 6 0.68 6 0 6 C0 5.34 0 4.68 0 4 C-0.99 4 -1.98 4 -3 4 C-3 3.34 -3 2.68 -3 2 C-2.01 2 -1.02 2 0 2 C0 1.34 0 0.68 0 0 Z " fill="#494949" transform="translate(19,909)"/>
<path d="M0 0 C0.66 0.66 1.32 1.32 2 2 C0.90716423 3.03295436 -0.19970579 4.05107835 -1.3125 5.0625 C-1.92738281 5.63097656 -2.54226563 6.19945312 -3.17578125 6.78515625 C-3.77777344 7.18605469 -4.37976563 7.58695312 -5 8 C-5.99 7.67 -6.98 7.34 -8 7 C-5.36 4.69 -2.72 2.38 0 0 Z " fill="#5A5A5A" transform="translate(436,298)"/>
<path d="M0 0 C0.99 0.33 1.98 0.66 3 1 C2.34 1.66 1.68 2.32 1 3 C0.83318891 6.08347826 0.83318891 6.08347826 1 9 C0.01 8.34 -0.98 7.68 -2 7 C-2.3125 4.5 -2.3125 4.5 -2 2 C-1.34 1.34 -0.68 0.68 0 0 Z " fill="#5C5C5C" transform="translate(21,899)"/>
<path d="M0 0 C0.66 0 1.32 0 2 0 C2.66 0.99 3.32 1.98 4 3 C4.66 2.34 5.32 1.68 6 1 C5.67 2.65 5.34 4.3 5 6 C4.01 6 3.02 6 2 6 C0 3 0 3 0 0 Z " fill="#656565" transform="translate(16,785)"/>
<path d="M0 0 C1.9375 0.3125 1.9375 0.3125 4 1 C4.33 1.99 4.66 2.98 5 4 C3.02 4 1.04 4 -1 4 C-0.67 2.68 -0.34 1.36 0 0 Z " fill="#D5D5D5" transform="translate(22,943)"/>
<path d="M0 0 C0.66 0 1.32 0 2 0 C2 0.99 2 1.98 2 3 C1.34 3 0.68 3 0 3 C-0.33 6.63 -0.66 10.26 -1 14 C-1.33 14 -1.66 14 -2 14 C-2.1799928 8.78020872 -1.97094808 4.92737019 0 0 Z " fill="#EDEDED" transform="translate(16,908)"/>
<path d="M0 0 C0.94875 0.165 1.8975 0.33 2.875 0.5 C5.80168901 1.0526635 5.80168901 1.0526635 8 1 C7.67 1.99 7.34 2.98 7 4 C5.02 4 3.04 4 1 4 C0.67 2.68 0.34 1.36 0 0 Z " fill="#4E4E4E" transform="translate(20,957)"/>
<path d="M0 0 C0.66 0.66 1.32 1.32 2 2 C4.06874034 2.6425235 4.06874034 2.6425235 6 3 C6 3.66 6 4.32 6 5 C4.02 5.66 2.04 6.32 0 7 C0 4.69 0 2.38 0 0 Z " fill="#DFDFDF" transform="translate(19,894)"/>
<path d="M0 0 C0.99 0.33 1.98 0.66 3 1 C2.67 2.32 2.34 3.64 2 5 C0.68 5.33 -0.64 5.66 -2 6 C-1.125 1.125 -1.125 1.125 0 0 Z " fill="#C8C8C8" transform="translate(24,766)"/>
<path d="M0 0 C1.98 0.99 1.98 0.99 4 2 C4 3.98 4 5.96 4 8 C3.01 7.67 2.02 7.34 1 7 C0.67 4.69 0.34 2.38 0 0 Z " fill="#585858" transform="translate(25,764)"/>
<path d="M0 0 C0.66 0 1.32 0 2 0 C2 2.64 2 5.28 2 8 C1.01 7.67 0.02 7.34 -1 7 C-0.67 4.69 -0.34 2.38 0 0 Z " fill="#464646" transform="translate(27,845)"/>
<path d="M0 0 C2 3 2 3 2 6 C-1 5 -1 5 -3 3 C-3.33 2.34 -3.66 1.68 -4 1 C-2 0 -2 0 0 0 Z " fill="#636363" transform="translate(27,797)"/>
<path d="M0 0 C1.32 0.99 2.64 1.98 4 3 C3.01 4.485 3.01 4.485 2 6 C1.34 6 0.68 6 0 6 C-1.125 2.25 -1.125 2.25 0 0 Z " fill="#D5D5D5" transform="translate(25,851)"/>
<path d="M0 0 C0.99 0.33 1.98 0.66 3 1 C3 1.66 3 2.32 3 3 C3.99 3.33 4.98 3.66 6 4 C3.36 4 0.72 4 -2 4 C-2 3.34 -2 2.68 -2 2 C-1.34 2 -0.68 2 0 2 C0 1.34 0 0.68 0 0 Z " fill="#DDDDDD" transform="translate(18,835)"/>
<path d="M0 0 C1.32 0.66 2.64 1.32 4 2 C4 2.66 4 3.32 4 4 C2.68 3.67 1.36 3.34 0 3 C0 4.98 0 6.96 0 9 C-0.33 9 -0.66 9 -1 9 C-1.09765625 2.84765625 -1.09765625 2.84765625 -1 1 C-0.67 0.67 -0.34 0.34 0 0 Z " fill="#EBEBEB" transform="translate(16,825)"/>
<path d="M0 0 C0.66 0 1.32 0 2 0 C2 1.65 2 3.3 2 5 C2.99 5.33 3.98 5.66 5 6 C3.35 6.33 1.7 6.66 0 7 C0 4.69 0 2.38 0 0 Z " fill="#595959" transform="translate(16,828)"/>
<path d="M0 0 C0.99 0.33 1.98 0.66 3 1 C2.67 2.32 2.34 3.64 2 5 C1.01 5 0.02 5 -1 5 C-0.67 3.35 -0.34 1.7 0 0 Z " fill="#CECECE" transform="translate(24,819)"/>
<path d="M0 0 C0.99 0.33 1.98 0.66 3 1 C2.67 2.32 2.34 3.64 2 5 C1.01 5 0.02 5 -1 5 C-0.67 3.35 -0.34 1.7 0 0 Z " fill="#CECECE" transform="translate(24,786)"/>
</svg>
